<svg width="97" height="19" viewBox="0 0 97 19" fill="none" xmlns="http://www.w3.org/2000/svg">
<path d="M4.75696 0.545454V18H0.538209V0.545454H4.75696ZM22.0491 6.86932H17.7878C17.731 6.43182 17.6145 6.03693 17.4384 5.68466C17.2622 5.33239 17.0293 5.03125 16.7395 4.78125C16.4497 4.53125 16.106 4.34091 15.7082 4.21023C15.3162 4.07386 14.8815 4.00568 14.4043 4.00568C13.5577 4.00568 12.8276 4.21307 12.2139 4.62784C11.606 5.04261 11.1372 5.64205 10.8077 6.42614C10.4838 7.21023 10.3219 8.15909 10.3219 9.27273C10.3219 10.4318 10.4866 11.4034 10.8162 12.1875C11.1514 12.9659 11.6202 13.554 12.2224 13.9517C12.8304 14.3437 13.5491 14.5398 14.3787 14.5398C14.8446 14.5398 15.2679 14.4801 15.6486 14.3608C16.0349 14.2415 16.373 14.0682 16.6628 13.8409C16.9582 13.608 17.1997 13.3267 17.3872 12.9972C17.5804 12.6619 17.7139 12.2841 17.7878 11.8636L22.0491 11.8892C21.9753 12.6619 21.7509 13.4233 21.3759 14.1733C21.0065 14.9233 20.498 15.608 19.8503 16.2273C19.2026 16.8409 18.4128 17.3295 17.481 17.6932C16.5548 18.0568 15.4923 18.2386 14.2935 18.2386C12.7139 18.2386 11.2991 17.892 10.0491 17.1989C8.80483 16.5 7.82187 15.483 7.10028 14.1477C6.37869 12.8125 6.0179 11.1875 6.0179 9.27273C6.0179 7.35227 6.38437 5.72443 7.11733 4.3892C7.85028 3.05398 8.84176 2.03977 10.0918 1.34659C11.3418 0.653409 12.7423 0.306818 14.2935 0.306818C15.3503 0.306818 16.3276 0.454545 17.2253 0.75C18.123 1.03977 18.9128 1.46591 19.5946 2.02841C20.2764 2.58523 20.8304 3.26989 21.2565 4.08239C21.6827 4.89489 21.9469 5.82386 22.0491 6.86932ZM39.7376 9.27273C39.7376 11.1932 39.3683 12.821 38.6297 14.1562C37.8911 15.4915 36.8911 16.5057 35.6297 17.1989C34.374 17.892 32.9649 18.2386 31.4024 18.2386C29.8342 18.2386 28.4223 17.8892 27.1666 17.1903C25.9109 16.4915 24.9138 15.4773 24.1751 14.1477C23.4422 12.8125 23.0757 11.1875 23.0757 9.27273C23.0757 7.35227 23.4422 5.72443 24.1751 4.3892C24.9138 3.05398 25.9109 2.03977 27.1666 1.34659C28.4223 0.653409 29.8342 0.306818 31.4024 0.306818C32.9649 0.306818 34.374 0.653409 35.6297 1.34659C36.8911 2.03977 37.8911 3.05398 38.6297 4.3892C39.3683 5.72443 39.7376 7.35227 39.7376 9.27273ZM35.4251 9.27273C35.4251 8.13636 35.2632 7.17614 34.9393 6.39205C34.6212 5.60795 34.1609 5.0142 33.5587 4.61079C32.9621 4.20739 32.2433 4.00568 31.4024 4.00568C30.5672 4.00568 29.8484 4.20739 29.2462 4.61079C28.6439 5.0142 28.1808 5.60795 27.857 6.39205C27.5388 7.17614 27.3797 8.13636 27.3797 9.27273C27.3797 10.4091 27.5388 11.3693 27.857 12.1534C28.1808 12.9375 28.6439 13.5312 29.2462 13.9347C29.8484 14.3381 30.5672 14.5398 31.4024 14.5398C32.2433 14.5398 32.9621 14.3381 33.5587 13.9347C34.1609 13.5312 34.6212 12.9375 34.9393 12.1534C35.2632 11.3693 35.4251 10.4091 35.4251 9.27273ZM55.8558 0.545454V18H52.2763L45.3303 7.92614H45.2195V18H41.0007V0.545454H44.6314L51.5007 10.6023H51.6456V0.545454H55.8558ZM61.5273 0.545454V18H57.3085V0.545454H61.5273ZM78.8195 6.86932H74.5581C74.5013 6.43182 74.3848 6.03693 74.2087 5.68466C74.0325 5.33239 73.7996 5.03125 73.5098 4.78125C73.22 4.53125 72.8763 4.34091 72.4786 4.21023C72.0865 4.07386 71.6518 4.00568 71.1746 4.00568C70.328 4.00568 69.5979 4.21307 68.9842 4.62784C68.3763 5.04261 67.9075 5.64205 67.578 6.42614C67.2541 7.21023 67.0922 8.15909 67.0922 9.27273C67.0922 10.4318 67.257 11.4034 67.5865 12.1875C67.9217 12.9659 68.3905 13.554 68.9928 13.9517C69.6007 14.3437 70.3195 14.5398 71.149 14.5398C71.6149 14.5398 72.0382 14.4801 72.4189 14.3608C72.8053 14.2415 73.1433 14.0682 73.4331 13.8409C73.7286 13.608 73.97 13.3267 74.1575 12.9972C74.3507 12.6619 74.4842 12.2841 74.5581 11.8636L78.8195 11.8892C78.7456 12.6619 78.5212 13.4233 78.1462 14.1733C77.7768 14.9233 77.2683 15.608 76.6206 16.2273C75.9729 16.8409 75.1831 17.3295 74.2513 17.6932C73.3251 18.0568 72.2626 18.2386 71.0638 18.2386C69.4842 18.2386 68.0695 17.892 66.8195 17.1989C65.5751 16.5 64.5922 15.483 63.8706 14.1477C63.149 12.8125 62.7882 11.1875 62.7882 9.27273C62.7882 7.35227 63.1547 5.72443 63.8876 4.3892C64.6206 3.05398 65.6121 2.03977 66.8621 1.34659C68.1121 0.653409 69.5126 0.306818 71.0638 0.306818C72.1206 0.306818 73.0979 0.454545 73.9956 0.75C74.8933 1.03977 75.6831 1.46591 76.3649 2.02841C77.0467 2.58523 77.6007 3.26989 78.0268 4.08239C78.453 4.89489 78.7172 5.82386 78.8195 6.86932ZM83.3638 18H78.8297L84.7189 0.545454H90.3354L96.2246 18H91.6905L87.5911 4.94318H87.4547L83.3638 18ZM82.7587 11.1307H92.2359V14.3352H82.7587V11.1307Z" fill="#141414"/>
</svg>
